<?xml version="1.0" ?><svg data-name="Layer 1" id="Layer_1" viewBox="0 0 512 512" xmlns="http://www.w3.org/2000/svg"><title/><circle cx="256" cy="256" fill="#fefefe" r="206.43"/><path d="M219.36,242.74h70.12s5.79,41.15-20.73,67.37c0,0-36,36.59-89.94,8.24,0,0-44.21-27.44-32.62-80.19,0,0,9.14-49.69,67.07-56.09,0,0,35.37-3.66,53.66,18.9l-20.73,21.34s-21.34-20.73-50.61-4c0,0-27.44,13.72-16.77,55.18,0,0,11.28,25.61,41.16,25.91,0,0,29.88,1.22,37.8-29.26H219.36Z" fill="#2e2e2e"/><polygon fill="#2e2e2e" points="376.57 245.93 351.27 245.93 351.27 220.62 332.16 220.62 332.16 245.93 306.86 245.93 306.86 265.04 332.16 265.04 332.16 290.34 351.27 290.34 351.27 265.04 376.57 265.04 376.57 245.93"/></svg>